<svg width="39" height="39" viewBox="0 0 39 39" fill="none" xmlns="http://www.w3.org/2000/svg">
<path fill-rule="evenodd" clip-rule="evenodd" d="M19.5 39C30.2696 39 39 30.2696 39 19.5C39 8.73045 30.2696 0 19.5 0C8.73045 0 0 8.73045 0 19.5C0 30.2696 8.73045 39 19.5 39Z" fill="white" fill-opacity="0.35"/>
<path fill-rule="evenodd" clip-rule="evenodd" d="M21.0282 11.5C21.4923 11.5 21.9394 11.6647 22.2804 11.9612L23.4696 13.2453C23.768 13.5048 24.1476 13.6633 24.5487 13.6989L24.7218 13.7065H25.2692C27.0535 13.7065 28.5 14.8191 28.5 16.5V24.4565C28.5 26.1374 27.0535 27.5 25.2692 27.5H13.7308C11.9465 27.5 10.5 26.1374 10.5 24.4565V16.5C10.5 14.8191 11.9465 13.7065 13.7308 13.7065H14.2782C14.7423 13.7065 15.1894 13.5419 15.5304 13.2453L16.7196 11.9612C17.0606 11.6647 17.5077 11.5 17.9718 11.5H21.0282ZM15.8465 17.0595C15.7169 16.969 15.5438 16.9844 15.4325 17.0878L15.3889 17.1375L13.5601 19.6994C13.521 19.7541 13.5 19.8195 13.5 19.8866C13.5 20.0435 13.6125 20.1744 13.7622 20.2046L13.8283 20.2112H14.9184L14.9217 20.3908C15.0172 22.9523 17.1474 25 19.7613 25C20.1693 25 20.5 24.6729 20.5 24.2695C20.5 23.8661 20.1693 23.539 19.7613 23.539C17.9589 23.539 16.4875 22.1381 16.4 20.3773L16.3959 20.2112H17.486C17.5538 20.2112 17.6199 20.1905 17.6753 20.1518C17.8049 20.0613 17.8482 19.8949 17.7869 19.7566L17.7542 19.6994L15.9254 17.1375C15.9038 17.1072 15.8771 17.0808 15.8465 17.0595ZM19.2387 15.5C18.8307 15.5 18.5 15.8271 18.5 16.2305C18.5 16.6339 18.8307 16.961 19.2387 16.961C21.0411 16.961 22.5125 18.3619 22.6 20.1227L22.6041 20.2888H21.514C21.4462 20.2888 21.3801 20.3095 21.3247 20.3482C21.1951 20.4387 21.1518 20.6051 21.2131 20.7434L21.2458 20.8006L23.0746 23.3625C23.0962 23.3928 23.1229 23.4192 23.1535 23.4405C23.2831 23.531 23.4562 23.5156 23.5675 23.4122L23.6111 23.3625L25.4399 20.8006C25.479 20.7459 25.5 20.6805 25.5 20.6134C25.5 20.4565 25.3875 20.3256 25.2378 20.2954L25.1717 20.2888H24.0816L24.0783 20.1092C23.9828 17.5477 21.8526 15.5 19.2387 15.5Z" fill="white"/>
</svg>
