<svg width="39" height="39" viewBox="0 0 39 39" fill="none" xmlns="http://www.w3.org/2000/svg">
<path fill-rule="evenodd" clip-rule="evenodd" d="M19.5 39C30.2696 39 39 30.2696 39 19.5C39 8.73045 30.2696 0 19.5 0C8.73045 0 0 8.73045 0 19.5C0 30.2696 8.73045 39 19.5 39Z" fill="white" fill-opacity="0.35"/>
<path fill-rule="evenodd" clip-rule="evenodd" d="M19.5 10.5C24.4706 10.5 28.5 14.3556 28.5 19.1117C28.5 23.8679 24.4706 27.7235 19.5 27.7235C18.8078 27.7235 18.1285 27.6491 17.462 27.5005L16.8649 27.3545C16.1461 27.2021 15.3985 27.2639 14.7152 27.5319L14.4899 27.6288L14.1024 27.8066C12.6664 28.4495 11.7976 28.6453 11.4958 28.3942C11.2202 28.1649 11.2913 27.5782 11.7091 26.6341C12.1295 25.684 12.1346 24.6055 11.7299 23.6556L11.637 23.4541L11.4904 23.1506C10.8301 21.739 10.5 20.3927 10.5 19.1117C10.5 14.3556 14.5294 10.5 19.5 10.5Z" fill="white"/>
</svg>
