<svg width="51" height="51" viewBox="0 0 51 51" fill="none" xmlns="http://www.w3.org/2000/svg">
<path fill-rule="evenodd" clip-rule="evenodd" d="M25.5 51C39.5833 51 51 39.5833 51 25.5C51 11.4167 39.5833 0 25.5 0C11.4167 0 0 11.4167 0 25.5C0 39.5833 11.4167 51 25.5 51Z" fill="white" fill-opacity="0.35"/>
<path fill-rule="evenodd" clip-rule="evenodd" d="M21.4797 35.5H29.4482C29.9983 35.5 30.4442 35.9477 30.4442 36.5C30.4442 37.0128 30.0597 37.4355 29.5643 37.4933L29.4482 37.5H21.4797C20.9296 37.5 20.4836 37.0523 20.4836 36.5C20.4836 35.9872 20.8681 35.5645 21.3635 35.5067L21.4797 35.5H29.4482H21.4797ZM33.5332 24.1035C34.083 24.1197 34.5157 24.5804 34.4996 25.1324C34.4577 26.5647 34.0014 28.0824 33.2274 29.4284C30.7519 33.733 25.2692 35.2079 20.9816 32.7226C18.2389 31.1329 16.5711 28.2458 16.5003 25.1258C16.4877 24.5737 16.9234 24.1159 17.4734 24.1033C18.0233 24.0907 18.4793 24.5281 18.4919 25.0803C18.547 27.5091 19.8435 29.7536 21.9776 30.9906C25.3125 32.9236 29.5768 31.7764 31.5021 28.4284C32.1165 27.36 32.4764 26.1628 32.5083 25.0737C32.5244 24.5217 32.9833 24.0873 33.5332 24.1035ZM25.4639 13.5C28.2145 13.5 30.4442 15.7386 30.4442 18.5V25C30.4442 27.7614 28.2145 30 25.4639 30C22.7134 30 20.4836 27.7614 20.4836 25V18.5C20.4836 15.7386 22.7134 13.5 25.4639 13.5Z" fill="white"/>
</svg>
