<svg width="27" height="26" viewBox="0 0 27 26" fill="none" xmlns="http://www.w3.org/2000/svg">
<path fill-rule="evenodd" clip-rule="evenodd" d="M10 6.00046C15.5228 6.00046 20 10.4776 20 16.0005C20 21.5233 15.5228 26.0005 10 26.0005C4.47715 26.0005 0 21.5233 0 16.0005C0 10.4776 4.47715 6.00046 10 6.00046ZM13.9265 19.1005C12.9316 20.3746 11.6466 20.9959 10 20.9959C8.35342 20.9959 7.06835 20.3746 6.0735 19.1005C5.79027 18.7377 5.26658 18.6732 4.90382 18.9565C4.54106 19.2397 4.47659 19.7634 4.75983 20.1261C6.07189 21.8066 7.84239 22.6626 10 22.6626C12.1576 22.6626 13.9281 21.8066 15.2402 20.1261C15.5234 19.7634 15.4589 19.2397 15.0962 18.9565C14.7334 18.6732 14.2097 18.7377 13.9265 19.1005ZM6.66667 12.6671C5.97631 12.6671 5.41667 13.4133 5.41667 14.3338C5.41667 15.2543 5.97631 16.0005 6.66667 16.0005C7.35702 16.0005 7.91667 15.2543 7.91667 14.3338C7.91667 13.4133 7.35702 12.6671 6.66667 12.6671ZM13.3333 12.6671C12.643 12.6671 12.0833 13.4133 12.0833 14.3338C12.0833 15.2543 12.643 16.0005 13.3333 16.0005C14.0237 16.0005 14.5833 15.2543 14.5833 14.3338C14.5833 13.4133 14.0237 12.6671 13.3333 12.6671ZM23.0005 6.00046C23.3318 6.00046 23.6005 6.26909 23.6005 6.60046C23.6005 7.65027 24.2281 8.33036 25.2379 8.39575L25.4015 8.40092C25.7329 8.40092 26.0015 8.66955 26.0015 9.00093C26.0015 9.29916 25.7839 9.54657 25.4988 9.59307L25.4005 9.60093C24.3511 9.60093 23.671 10.2286 23.6056 11.2383L23.6005 11.4019C23.6005 11.7333 23.3318 12.0019 23.0005 12.0019C22.7022 12.0019 22.4548 11.7844 22.4083 11.4993L22.4005 11.4009C22.4005 10.3516 21.7728 9.67149 20.763 9.6061L20.6 9.60093C20.2686 9.60093 20 9.3323 20 9.00093C20 8.70269 20.2176 8.45528 20.5027 8.40878L20.6005 8.40092C21.6498 8.40092 22.3299 7.7733 22.3953 6.76351L22.4005 6.60046C22.4005 6.26909 22.6691 6.00046 23.0005 6.00046ZM17 0C17.3314 0 17.6 0.268629 17.6 0.6C17.6 1.6498 18.2276 2.3299 19.2374 2.39528L19.401 2.40046C19.7324 2.40046 20.001 2.66909 20.001 3.00046C20.001 3.2987 19.7834 3.54611 19.4983 3.59261L19.4 3.60046C18.3507 3.60046 17.6706 4.22809 17.6052 5.23788L17.6 5.40148C17.6 5.73286 17.3314 6.00148 17 6.00148C16.7018 6.00148 16.4544 5.7839 16.4079 5.49881L16.4 5.40046C16.4 4.35112 15.7724 3.67103 14.7626 3.60564L14.5995 3.60046C14.2682 3.60046 13.9995 3.33183 13.9995 3.00046C13.9995 2.70223 14.2171 2.45482 14.5022 2.40832L14.6 2.40046C15.6493 2.40046 16.3294 1.77284 16.3948 0.763044L16.4 0.6C16.4 0.268629 16.6686 0 17 0Z" fill="white"/>
</svg>
