<svg width="51" height="51" viewBox="0 0 51 51" fill="none" xmlns="http://www.w3.org/2000/svg">
<path fill-rule="evenodd" clip-rule="evenodd" d="M25.5 51C39.5833 51 51 39.5833 51 25.5C51 11.4167 39.5833 0 25.5 0C11.4167 0 0 11.4167 0 25.5C0 39.5833 11.4167 51 25.5 51Z" fill="white" fill-opacity="0.35"/>
<path fill-rule="evenodd" clip-rule="evenodd" d="M14.5 20C13.3954 20 12.5 20.8954 12.5 22V29C12.5 30.1046 13.3954 31 14.5 31H20.5007L26.4272 36.9269C27.5611 38.0609 29.5 37.2578 29.5 35.6542V15.3458C29.5 13.7421 27.5611 12.9391 26.4272 14.0731L20.5007 20H14.5ZM36.5337 25.5C36.5337 22.4232 35.2806 19.8293 32.7264 17.6526C32.306 17.2943 32.2556 16.6632 32.6139 16.2428C32.9721 15.8225 33.6032 15.7721 34.0236 16.1303C37.0144 18.679 38.5337 21.8241 38.5337 25.5C38.5337 29.1782 37.0122 32.3067 34.0174 34.8175C33.5942 35.1723 32.9635 35.1169 32.6087 34.6936C32.2538 34.2704 32.3093 33.6397 32.7325 33.2849C35.2827 31.1467 36.5337 28.5745 36.5337 25.5Z" fill="white"/>
</svg>
